# Blender v3.2.0 OBJ File: 'test_room.blend'
# www.blender.org
mtllib test_room.mtl
o Cube
v 26.261702 0.421290 -26.261702
v 26.261702 -0.421290 -26.261702
v 26.261702 0.421290 26.261702
v 26.261702 -0.421290 26.261702
v -26.261702 0.421290 -26.261702
v -26.261702 -0.421290 -26.261702
v -26.261702 0.421290 26.261702
v -26.261702 -0.421290 26.261702
v 24.992092 0.421290 -24.992092
v 24.992092 0.421290 24.992092
v -24.992092 0.421290 -24.992092
v -24.992092 0.421290 24.992092
v 14.280797 0.421290 -18.736675
v 14.280797 0.421290 2.016012
v -6.471892 0.421290 -18.736675
v -6.471892 0.421290 2.016012
v 26.261702 25.387037 -26.261702
v 26.261702 25.387037 26.261702
v -26.261702 25.387037 -26.261702
v -26.261702 25.387037 26.261702
v 24.992092 25.387037 -24.992092
v 24.992092 25.387037 24.992092
v -24.992092 25.387037 -24.992092
v -24.992092 25.387037 24.992092
v 14.280797 9.083200 -18.736675
v 14.280797 9.083200 2.016012
v -6.471892 9.083200 -18.736675
v -6.471892 9.083200 2.016012
vt 0.625000 0.750000
vt 0.625000 0.500000
vt 0.625000 0.500000
vt 0.625000 0.750000
vt 0.375000 0.750000
vt 0.625000 1.000000
vt 0.375000 1.000000
vt 0.375000 0.000000
vt 0.625000 0.000000
vt 0.625000 0.250000
vt 0.375000 0.250000
vt 0.125000 0.500000
vt 0.375000 0.500000
vt 0.125000 0.750000
vt 0.625000 0.500000
vt 0.625000 0.250000
vt 0.625000 0.250000
vt 0.625000 0.500000
vt 0.625000 0.000000
vt 0.625000 0.250000
vt 0.625000 0.750000
vt 0.625000 0.750000
vt 0.625000 0.500000
vt 0.625000 0.250000
vt 0.625000 0.000000
vt 0.625000 0.000000
vt 0.625000 0.250000
vt 0.625000 0.750000
vt 0.625000 0.000000
vt 0.625000 1.000000
vt 0.625000 1.000000
vt 0.625000 0.000000
vt 0.625000 1.000000
vt 0.625000 1.000000
vt 0.625000 0.500000
vt 0.875000 0.500000
vt 0.875000 0.750000
vt 0.625000 0.750000
vt 0.625000 1.000000
vn 1.0000 0.0000 0.0000
vn 0.0000 0.0000 1.0000
vn -1.0000 0.0000 0.0000
vn 0.0000 -1.0000 0.0000
vn 0.0000 0.0000 -1.0000
vn 0.0000 1.0000 -0.0000
usemtl Material
s off
f 3/1/1 1/2/1 17/3/1 18/4/1
f 4/5/2 3/1/2 7/6/2 8/7/2
f 8/8/3 7/9/3 5/10/3 6/11/3
f 6/12/4 2/13/4 4/5/4 8/14/4
f 2/13/1 1/2/1 3/1/1 4/5/1
f 6/11/5 5/10/5 1/2/5 2/13/5
f 9/15/6 11/16/6 15/17/6 13/18/6
f 5/10/3 7/9/3 20/19/3 19/20/3
f 9/15/3 10/21/3 22/22/3 21/23/3
f 11/16/2 9/15/2 21/23/2 23/24/2
f 15/17/3 16/25/3 28/26/3 27/27/3
f 10/21/6 9/15/6 13/18/6 14/28/6
f 11/16/6 12/29/6 16/25/6 15/17/6
f 12/30/6 10/21/6 14/28/6 16/31/6
f 19/20/6 20/19/6 24/32/6 23/24/6
f 18/4/6 17/3/6 21/23/6 22/22/6
f 17/3/6 19/20/6 23/24/6 21/23/6
f 20/33/6 18/4/6 22/22/6 24/34/6
f 12/29/1 11/16/1 23/24/1 24/32/1
f 10/21/5 12/30/5 24/34/5 22/22/5
f 1/2/5 5/10/5 19/20/5 17/3/5
f 7/6/2 3/1/2 18/4/2 20/33/2
f 25/35/6 27/36/6 28/37/6 26/38/6
f 16/31/2 14/28/2 26/38/2 28/39/2
f 13/18/5 15/17/5 27/27/5 25/35/5
f 14/28/1 13/18/1 25/35/1 26/38/1
